<svg xmlns="http://www.w3.org/2000/svg" enable-background="new 0 0 135 135" viewBox="0 0 135 135"><rect width="128" height="3.16" x="3.5" y="128.34" fill="#7a8490"/><path fill="#866868" d="M98.0255966,34.0129013H36.9747353C36.9747353,17.151926,50.6272888,3.5,67.4876404,3.5
				S98.0255966,17.151926,98.0255966,34.0129013z"/><rect width="85.443" height="84.561" x="24.779" y="44.013" fill="#b7928f"/><rect width="18.043" height="11.399" x="58.478" y="82.857" fill="#c8a9a4"/><rect width="1.452" height="7.755" x="66.805" y="84.679" fill="#d8bfbc"/><path fill="#d8bfbc" d="M75.1048279,92.8390656H59.8953476v-8.5650177h15.2094803V92.8390656z M60.3002014,92.4342194
									h14.3997726v-7.7553177H60.3002014V92.4342194z"/><rect width="20.476" height="1.703" x="57.262" y="94.256" fill="#d8bfbc"/><rect width="6.505" height="7.765" x="60.308" y="84.671" fill="#44433f"/><rect width="6.505" height="7.765" x="68.266" y="84.671" fill="#44433f"/><rect width="90.383" height="3.207" x="22.309" y="113.018" fill="#c8a9a4"/><rect width="85.443" height="1.326" x="24.776" y="116.224" fill="#2c2c34" opacity=".08"/><rect width="85.443" height="1.326" x="24.776" y="122.399" fill="#2c2c34" opacity=".08"/><rect width="90.383" height="3.207" x="22.309" y="119.192" fill="#c8a9a4"/><rect width="90.383" height="3.207" x="22.309" y="125.366" fill="#c8a9a4"/><rect width="85.44" height="4.078" x="24.778" y="44.012" opacity=".08"/><rect width="90.382" height="6.602" x="22.309" y="37.411" fill="#c8a9a4"/><rect width="77.489" height="10.215" x="28.756" y="27.196" fill="#b7928f"/><rect width="9.66" height="7.073" x="76.165" y="100.388" fill="#4f4e4d"/><rect width="9.66" height="7.073" x="49.174" y="100.388" fill="#4f4e4d"/><rect width="17.33" height="7.073" x="58.835" y="100.388" fill="#4f4e4d"/><rect width="9.66" height="21.113" x="76.165" y="107.461" fill="#4f4e4d"/><rect width="17.33" height="21.113" x="58.835" y="107.461" fill="#4f4e4d"/><rect width="9.66" height="21.113" x="49.174" y="107.461" fill="#4f4e4d"/><path fill="#fff" d="M69.5510941 120.0810318c0 .2186432-.1800003.4115295-.4115295.4115295-.218956 0-.4118423-.1928864-.4118423-.4115295 0-.1677551.0901642-.3091202.2315292-.3731995v-2.5734634c-.1413651-.0772858-.2315292-.2060852-.2315292-.3732071 0-.2318344.1928864-.4121552.4118423-.4121552.2315292 0 .4115295.1803207.4115295.4121552 0 .1671219-.0898438.2959213-.2186432.3732071v2.5734634C69.4612503 119.7719116 69.5510941 119.9132767 69.5510941 120.0810318zM66.4798508 120.0810318c0 .2186432-.1800003.4115295-.4115219.4115295-.2189636 0-.4118423-.1928864-.4118423-.4115295 0-.1677551.0901566-.3091202.2315216-.3731995v-2.5734634c-.1413651-.0772858-.2315216-.2060852-.2315216-.3732071 0-.2318344.1928787-.4121552.4118423-.4121552.2315216 0 .4115219.1803207.4115219.4121552 0 .1671219-.0898438.2959213-.2186432.3732071v2.5734634C66.390007 119.7719116 66.4798508 119.9132767 66.4798508 120.0810318z"/><polygon points="86.637 99.579 86.624 128.569 83.613 128.569 83.613 102.53 51.374 102.53 51.374 128.569 48.363 128.569 48.363 99.579" opacity=".08"/><rect width="1.623" height="21.113" x="48.363" y="107.461" fill="#d8bfbc"/><rect width=".616" height="21.113" x="67.192" y="107.461" fill="#d8bfbc"/><polygon fill="#d8bfbc" points="86.637 128.574 85.014 128.574 85.014 108.273 49.986 108.273 49.986 128.574 48.363 128.574 48.363 106.65 86.637 106.65"/><polygon fill="#d8bfbc" points="86.637 107.461 85.014 107.461 85.014 101.199 49.986 101.199 49.986 107.461 48.363 107.461 48.363 99.576 86.637 99.576"/><rect width="1.623" height="21.113" x="58.023" y="107.461" fill="#d8bfbc"/><rect width="1.623" height="21.113" x="75.354" y="107.461" fill="#d8bfbc"/><rect width="1.623" height="7.073" x="66.689" y="100.388" fill="#d8bfbc"/><rect width="1.623" height="7.073" x="75.354" y="100.388" fill="#d8bfbc"/><polygon fill="#d8bfbc" points="48.363 107.461 49.986 107.461 49.986 101.199 85.014 101.199 85.014 107.461 86.637 107.461 86.637 99.576 48.363 99.576"/><rect width="1.623" height="7.073" x="58.023" y="100.388" fill="#d8bfbc"/><g><rect width="15.483" height="23.166" x="30.319" y="53.237" fill="#d8bfbc"/><rect width="11.607" height="19.289" x="32.257" y="55.176" fill="#4f4e4d"/><rect width=".926" height="14.342" x="37.597" y="60.861" fill="#d8bfbc"/><rect width="13.099" height=".926" x="31.514" y="60.398" fill="#d8bfbc"/><rect width="15.483" height="23.166" x="49.945" y="53.237" fill="#d8bfbc"/><rect width="11.607" height="19.289" x="51.883" y="55.176" fill="#4f4e4d"/><rect width=".926" height="14.342" x="57.223" y="60.861" fill="#d8bfbc"/><rect width="13.099" height=".926" x="51.14" y="60.398" fill="#d8bfbc"/><rect width="15.483" height="23.166" x="69.572" y="53.237" fill="#d8bfbc"/><rect width="11.607" height="19.289" x="71.509" y="55.176" fill="#4f4e4d"/><rect width=".926" height="14.342" x="76.849" y="60.861" fill="#d8bfbc"/><rect width="13.099" height=".926" x="70.767" y="60.398" fill="#d8bfbc"/><g><rect width="15.483" height="23.166" x="89.198" y="53.237" fill="#d8bfbc"/><rect width="11.607" height="19.289" x="91.136" y="55.176" fill="#4f4e4d"/><rect width=".926" height="14.342" x="96.476" y="60.861" fill="#d8bfbc"/><rect width="13.099" height=".926" x="90.393" y="60.398" fill="#d8bfbc"/></g><g><rect width="15.483" height="23.166" x="30.319" y="83.143" fill="#d8bfbc"/><rect width="11.607" height="19.289" x="32.257" y="85.081" fill="#4f4e4d"/><rect width=".926" height="14.342" x="37.597" y="90.767" fill="#d8bfbc"/><rect width="13.099" height=".926" x="31.514" y="90.304" fill="#d8bfbc"/></g><g><rect width="15.483" height="23.166" x="89.198" y="83.143" fill="#d8bfbc"/><rect width="11.607" height="19.289" x="91.136" y="85.081" fill="#4f4e4d"/><rect width=".926" height="14.342" x="96.476" y="90.767" fill="#d8bfbc"/><rect width="13.099" height=".926" x="90.393" y="90.304" fill="#d8bfbc"/></g></g><g><rect width="73.435" height="2.713" x="30.783" y="16.793" fill="#9e8080"/><rect width="2.6" height="7.694" x="32.683" y="19.502" fill="#9e8080"/><rect width="2.6" height="7.694" x="41.062" y="19.502" fill="#9e8080"/><rect width="2.6" height="7.694" x="49.442" y="19.502" fill="#9e8080"/><rect width="2.6" height="7.694" x="57.821" y="19.502" fill="#9e8080"/><rect width="2.6" height="7.694" x="66.2" y="19.502" fill="#9e8080"/><rect width="2.6" height="7.694" x="74.579" y="19.502" fill="#9e8080"/><rect width="2.6" height="7.694" x="82.959" y="19.502" fill="#9e8080"/><rect width="2.6" height="7.694" x="91.338" y="19.502" fill="#9e8080"/><rect width="2.6" height="7.694" x="99.717" y="19.502" fill="#9e8080"/></g><g><rect width="4.133" height="5.093" x="32.471" y="29.756" fill="#9e8080"/><rect width="4.133" height="5.093" x="41.889" y="29.756" fill="#9e8080"/><rect width="4.133" height="5.093" x="51.307" y="29.756" fill="#9e8080"/><rect width="4.133" height="5.093" x="60.725" y="29.756" fill="#9e8080"/><rect width="4.133" height="5.093" x="70.143" y="29.756" fill="#9e8080"/><rect width="4.133" height="5.093" x="79.561" y="29.756" fill="#9e8080"/><rect width="4.133" height="5.093" x="88.979" y="29.756" fill="#9e8080"/><rect width="4.133" height="5.093" x="98.397" y="29.756" fill="#9e8080"/></g><path fill="#d0281b" d="M117.3921432,79.5885239c-3.2325745,7.1865921-4.093399,16.8081818,1.0770416,22.7558746
			c3.8144302,4.3878403,9.3515778,2.4568481,10.1970139,1.5656891
			C121.7389679,100.1960678,119.5157013,89.9601593,117.3921432,79.5885239z"/><rect width="2.04" height="55.34" x="116.44" y="72.998" fill="#4f4e4d"/><path fill="#f33" d="M128.666275,103.9094009c-1.5447693-1.6624832-3.1009216-3.3398819-4.277977-5.2801666
			c-1.1770477-1.9402847-1.9626236-4.187149-1.8152466-6.4517593c0.1088638-1.672905,0.7155075-3.2717209,0.9840927-4.926506
			c0.4301224-2.6500473-0.039238-5.4378967-1.3133698-7.8010178c-1.2741394-2.3631134-3.3453751-4.2872696-5.7957764-5.3842087
			c-1.5473557,6.436409-1.2771149,13.5020294,0.8206787,19.780632c0.7467957,2.2351303,1.7591095,4.4572983,3.4746475,6.0729828
			C122.8592453,101.9121323,125.8650436,103.1339111,128.666275,103.9094009z"/></svg>