<svg xmlns="http://www.w3.org/2000/svg" viewBox="0 0 64 64"><ellipse cx="32" cy="53.5" fill="#fccd1d" rx="29" ry="7.5"/><ellipse cx="32" cy="53.5" fill="#f9a215" rx="20" ry="3.5"/><path fill="#dd051d" d="M54 25a22 22 0 1 0-31.14 20l7.82 7.84a2 2 0 0 0 2.64 0L41.14 45A22 22 0 0 0 54 25Z"/><circle cx="32" cy="25" r="18" fill="#fff"/><path fill="#dd051d" d="M40 22h-5v-5a3 3 0 0 0-3-3 3 3 0 0 0-3 3v5h-5a3 3 0 0 0-3 3 3 3 0 0 0 3 3h5v5a3 3 0 0 0 3 3 3 3 0 0 0 3-3v-5h5a3 3 0 0 0 3-3 3 3 0 0 0-3-3Z"/></svg>